<svg version="1" xmlns="http://www.w3.org/2000/svg" width="2048" height="2048" viewBox="0 0 1536.000000 1536.000000"><path d="M1149.5 6.6c-3.2 3.4-6.5 6.2-7.4 6.2-.9 0-2.7.3-4.1.6-1.4.3-4.6.8-7.1 1.1-2.5.3-5.6.8-7 1-1.3.3-4.4.7-6.9 1-2.5.3-5.6.8-7 1-2.3.4-5.2.9-12 2-1.4.2-4.5.7-7 1-2.5.3-5.6.8-7 1-1.4.2-4.3.6-6.5 1-2.3.3-5.2.7-6.5 1-1.3.3-4.2.7-6.5 1-2.2.4-5.1.8-6.5 1-1.4.2-4.5.7-7 1-6.6 1-8.1 1.2-12.2 1.9-2.1.3-5.3.8-7 1.1-1.8.3-4.4.7-5.8.9-3.1.6-11.7 1.7-15 2-1.4.1-3 .5-3.5.8-.6.3-2 .4-3.2.3-1.3-.1-2.3.1-2.3.5 0 .3-1.5.6-3.2.7-3.1 0-8.9.8-13.3 1.7-1.1.3-3 .5-4.2.5-2.4.1-3.3 2.1-1 2.1.7 0 2.2.8 3.3 1.8 1 .9 3.1 2.5 4.6 3.4 9.4 6.1 26.2 21 38.3 34 10.2 10.9 12.5 13.7 12.5 14.8 0 .5.4 1 .8 1 .5 0 2.6 2.5 4.8 5.6 2.1 3 4.4 6.1 5 6.7 2.1 2.5 11.4 16.6 11.4 17.6 0 .5.4 1.1.8 1.3.8.3 11.7 19.5 15.3 26.8.9 1.9 3.3 6.8 5.4 10.7 2 4 3.2 7.3 2.8 7.3-.4 0-.3.4.3.8 1.9 1.3 22.7 55.6 23.8 62.2.4 2.3 1.7 7.3 2.4 9 .3.8.7 1.9.8 2.5.1.5.3 1.2.4 1.5.3.8.6 2.2 5 19 3.5 13.7 9.4 40.1 10.5 47 .3 1.4.7 3.6 1 5 .3 1.4.8 4.3 1.1 6.5.5 3.8.8 5.4 1.7 10 .3 1.1.8 4.2 1.2 7 .4 2.7 1 6.1 1.2 7.5.2 1.4.6 3.8.8 5.5.3 1.6.7 4.6.9 6.5.3 1.9.8 5.3 1 7.5.3 2.2.8 6 1.1 8.5 1.3 9 2.2 16.2 3 24.5.8 8.7 1.3 13.5 2 20.5.6 5.5.9 8.1 2 23.5 1.8 22.7 2.5 24.6 9.8 25.3 10.2.9 12-1.7 12.2-18.2.1-6.7.5-12.8.9-13.4.4-.7.4-1.2-.1-1.2-.4 0-.8-8.8-.8-19.5s.4-19.5.8-19.5c.5 0 .5-.6.1-1.2-1.1-1.8-1.2-33-.2-34.5.5-.6.5-1.4.1-1.6-1-.7-.9-16.8.1-18.5.4-.7.4-1.2-.1-1.2-.4 0-.8-8.8-.8-19.5s.4-19.5.8-19.5c.5 0 .5-.5.1-1.2-1-1.6-1.1-33.8-.1-34.5.4-.2.4-1 0-1.6-1-1.6-1-26.7 0-26.7.5 0 .5-.6.1-1.2-1.1-1.8-1.2-33-.2-34.5.5-.6.5-1.4.1-1.6-1-.7-.9-16.8.1-18.5.4-.7.4-1.2-.1-1.2-.4 0-.8-8.8-.8-19.5s.4-19.5.8-19.5c.5 0 .5-.6.1-1.2-1.1-1.8-1.2-33-.2-34.5.5-.6.5-1.4.1-1.6-1-.7-.9-16.8.1-18.5.4-.7.4-1.2-.1-1.2-.4 0-.8-8.8-.8-19.5s.4-19.5.8-19.5c.5 0 .5-.5.1-1.2s-.8-9.4-.9-19.3c0-19.2-1-24.3-4.6-24.7-7.6-.7-7.6-.7-13.4 5.8zM589.9 7.5c-.3.2-1.4.6-2.5.8-1.8.4-2.6.6-6.9 2.3-1.1.4-2.2.8-2.5.8-1.3.3-10.9 4.3-18.5 7.7-2.7 1.3-5.2 2.3-5.5 2.4-2.4.5-26 13.2-36.3 19.7-4.3 2.6-8.3 4.8-8.8 4.8s-.9.4-.9.8c0 .5-1.7 1.8-3.8 2.9-2 1.2-5.1 3.3-6.7 4.7-1.7 1.4-3.4 2.6-3.8 2.6-.5 0-1.4.6-2.1 1.2-.7.7-2.8 2.4-4.6 3.8-17.9 13.5-39.6 33.6-53.5 49.4-13.5 15.4-12.5 14.2-16.1 19.1-1.6 2.1-3.6 4.6-4.4 5.5-.8.9-2.6 3.2-4 5.3-1.4 2-2.8 3.7-3.2 3.7-.5 0-.8.6-.8 1.2 0 .7-1.8 3.7-4 6.5-2.2 2.9-3.6 5.3-3.2 5.3.4 0 .2.4-.3.8-1.3.8-10.4 15.1-13 20.2-1 1.9-2.1 3.7-2.4 4-.3.3-1.9 3.2-3.5 6.5s-3.4 6.3-3.9 6.6c-.5.3-.8.9-.7 1.3 0 .4-1.5 4-3.4 8.1-5.6 11.5-10.4 23.3-9.8 23.9.3.4 0 .6-.6.6-.7 0-1.1.3-1 .7.1.9-.9 4.1-2.4 6.7-.5 1-1.2 3-1.4 4.4-.3 1.5-1 3.2-1.6 3.9-.6.7-.8 1.3-.4 1.3.3 0-.3 2.2-1.4 5-1.1 2.7-1.7 5-1.5 5 .3 0 .1.8-.4 1.9-1 1.8-5.7 18.8-6.7 24.1-.3 1.4-.9 4.1-1.4 6-.5 1.9-1.2 5.5-1.5 7.9-.3 2.3-.7 4.6-.9 5-.3.4-.7 2.9-1 5.6-.4 2.8-.9 6.3-1.2 8-.6 3-.9 6.1-2.1 21-1 12.9-.5 71 .7 71 .1 0 .3 2.9.5 6.5s.4 6.5.5 6.5c.1 0 .3 1.1.5 2.5 1.5 14.1 2.1 18.5 2.5 18.5.1 0 .3 1.6.6 3.5.3 2.8 2.4 14.5 3.9 22 .9 4.5 8.9 34.1 10.3 38 .3.8.6 1.9.8 2.5.3 1.5 5.4 15.7 6.4 18 .4 1.1 1.5 3.6 2.4 5.7.9 2 1.6 3.8 1.6 4.1 0 1.7 15.1 32.6 16.2 33.3.5.3.6.9.3 1.4-.3.4.2 1.3 1 2s1.5 1.6 1.5 2c0 1.1 10.6 18.9 12.5 20.9.8 1 1.5 2.1 1.5 2.4 0 .4 1.5 2.9 3.3 5.5 1.8 2.6 5.9 8.3 8.9 12.7 3.1 4.4 6.6 9 7.8 10.2 1.1 1.3 1.7 2.3 1.3 2.3-.4 0 0 .5 1 1.1.9.5 1.7 1.7 1.7 2.4 0 .8.3 1.5.8 1.5.4 0 3 2.8 5.7 6.2 2.8 3.4 6 7.2 7.3 8.5 1.2 1.2 2.2 2.4 2.2 2.6 0 .3 2.9 3.5 6.4 7.1 3.5 3.6 6.2 6.6 6 6.6-.9 0 28.6 28.4 38.2 36.7 3.2 2.8 7 6.1 8.4 7.3 1.4 1.2 4.5 3.9 7 5.9 2.5 2 4.7 3.8 5 4.1.3.3 4.6 3.7 9.5 7.5 5 3.9 9.5 7.3 10 7.8 3.8 3 23.4 17.1 29.5 21.2 4.1 2.7 7.7 5.2 8 5.5.3.3 3.7 2.6 7.5 5 3.9 2.5 7.2 4.8 7.3 5.2.2.5.9.8 1.6.8.7 0 2.1.8 3.2 1.7 1.9 1.7 3.1 2.4 8.7 5.5 1.2.7 2.4 1.5 2.7 1.8.9.9 20.2 12.4 23.5 14 1.6.8 3.2 1.7 3.5 2.1.3.3 2.1 1.4 4 2.4s3.7 2.1 4 2.4c.3.3 3.4 2.1 7 4s7.9 4.2 9.5 5.2c10.2 6 54.7 28.9 56 28.9.4 0 2 .9 3.6 2.1 1.6 1.1 2.9 1.7 2.9 1.3 0-.4.9.1 1.9 1 1.1 1 2.5 1.9 3.3 2 2 .4 9.3 4 9.6 4.8.2.5.9.8 1.6.8 1.2 0 3.5 1.1 13.6 6.5 1.4.8 9.3 4.6 17.5 8.6 8.3 4.1 15.2 7.6 15.5 8 .3.3 1.6 1 3 1.4 1.4.4 2.7 1 3 1.4.3.3 3.4 2.1 7 3.9 3.6 1.8 9.4 4.8 13 6.7 3.6 1.9 7 3.5 7.7 3.5.7 0 1.6.7 2.1 1.6.5.9 1.3 1.6 1.8 1.7 1 0 8.1 3.3 10.4 4.7.8.5 5.1 2.9 9.5 5.3 4.4 2.5 9.8 5.5 11.9 6.7 2.2 1.2 6.2 3.3 8.8 4.7 2.6 1.4 5.1 2.9 5.4 3.4.3.5.9.7 1.4.4.5-.3 1.2 0 1.5.5.4.6 1.7 1.6 2.8 2.1 1.2.5 3.9 1.9 5.9 3.2 10.2 6.1 15.5 9.2 17.3 10.3 10.1 5.8 43.7 26.7 45.9 28.5 2.3 1.9 14.2 10 15.6 10.6 1.8.8 2.5 1.4 6.4 4.8 1.6 1.4 3.2 2.5 3.6 2.5.4 0 2 1.1 3.6 2.5s3.2 2.5 3.6 2.5c.4 0 1.3.6 2 1.3.7.7 3.8 3.2 6.9 5.4 3.1 2.3 6.2 4.7 7 5.5.8.7 3.9 3.2 6.9 5.5 24.8 19 57 52.3 72.5 74.9 3 4.4 5.8 8.3 6.3 8.9.4.5 2.3 3.7 4.2 7 1.8 3.3 3.6 6.2 4 6.5.9.8 11.6 22.9 13.8 28.5 1 2.7 2.2 5.9 2.7 7 .4 1.1.9 2.7 1.1 3.6.2.9.9 2.9 1.5 4.5.7 1.6 1.3 3.3 1.4 3.9.2.5 1.2 4.1 2.3 8 1.2 3.8 2.3 8.1 2.6 9.5.2 1.4.7 3.2 1 4 .3.8.7 3.1 1 5.1.3 2 .8 4.2 1 5 .3.8.7 3 1 4.9 1.1 7.7 2.4 19.6 2.4 21 0 .8.3 2.6.6 4s.8 10.1 1.1 19.4c.3 9.3.8 17.2 1 17.6.2.3 0 1.2-.5 2-.5.9-.5 1.9.2 2.7.6.7.7 1.3.2 1.3-.5 0-.9 3.9-1 8.8-.1 13.4-2.4 40.7-3.4 40.7-.1 0-.3 1.6-.5 3.5-.8 7.5-4.6 28.3-7.1 38.3-.2.9-.6 2.5-.8 3.5-.8 3.7-2.8 10.9-4.3 15.3-.8 2.5-1.6 5.2-1.7 6-.2.8-.5 2.1-.8 2.9-2.8 7.6-4 11.2-4.2 12.3-.2.6-.7 2.1-1.1 3.2-.5 1.1-1.7 4.2-2.8 7-1 2.7-2.4 6.1-3 7.5-.6 1.4-1.1 2.7-1.2 3-.9 2.7-7.5 16.4-11.5 24-1.3 2.5-2.4 4.8-2.5 5.2 0 .4-.8 1.7-1.7 2.8-1 1.1-1.8 2.2-1.8 2.5 0 .8-8.1 13.8-9.6 15.2-.8.8-1.4 1.8-1.4 2.3 0 .5-.6 1.5-1.3 2.2-.7.7-2.8 3.5-4.6 6.1-1.8 2.6-4.6 6.1-6.2 7.8-1.6 1.6-2.9 3.3-2.9 3.7 0 .8-18.8 19.3-23.3 22.9-2.4 2-3.7 5.3-2.1 5.3 1.2 0 23.3-12 30.3-16.4 2.2-1.5 4.3-2.6 4.6-2.6.3 0 1.1-.5 1.8-1 .7-.6 3.6-2.6 6.6-4.5 3-1.9 5.8-3.9 6.1-4.6.4-.6 1-1 1.4-.9 1 .2 7.6-4.3 7.6-5.3 0-.4.6-.7 1.3-.7.6 0 2.6-1.2 4.2-2.6 1.7-1.5 4.1-3.4 5.5-4.3 3.2-2.1 5.7-4 8.6-6.9 1.3-1.2 2.7-2.2 3.3-2.2.5 0 1.1-.3 1.3-.8.2-.4 2.1-2.2 4.3-4.1 16.8-14.1 38.3-35.6 50.6-50.2 2.4-2.9 5.3-6.2 6.4-7.4 4.7-5 25.7-33.5 31-42.1 1.1-1.8 4.5-7.2 7.5-12.1 7.1-11.3 9.3-15.3 19.3-35.4 8.8-17.4 12.2-24.9 11.9-26.2-.1-.4.2-.7.8-.7.6 0 .9-.3.8-.8-.1-.7.7-3.2 2.3-6.7 2.4-5.4 13.7-38.2 14.2-41.5.1-.8.6-2 1-2.6.3-.6.9-2.8 1.1-4.8.3-2.1.9-4.3 1.5-5 .6-.7.8-1.5.6-1.8-.3-.3-.1-1.6.4-3s1.2-4 1.5-6c.3-1.9.8-4.1 1-4.9.3-.8.8-2.5 1-3.9.3-1.4.8-3.8 1.1-5.5.3-1.6.7-4.2.8-5.7.1-1.5.5-2.8.9-2.8.3 0 .5-.8.3-1.8-.1-.9 0-2.1.3-2.7.3-.5.7-2.1.9-3.5.1-1.4.4-3.9.6-5.5.3-1.7.8-5.9 1.2-9.5.4-3.6.9-7.9 1.1-9.5 1.8-16.7 2.4-51.2 1.1-69-.5-5.5-1-12.3-1.2-15-.3-4.9-1.1-11.7-2.2-18-1.3-7.9-1.5-9.2-1.7-11.5-.1-1.4-.6-3.6-.9-5-.7-2.4-1.1-4.5-2.3-12-.3-1.9-.8-3.8-1.1-4.3-.2-.4-.6-1.7-.9-3-.7-3.6-1.2-6-2.3-9.5-.5-1.7-.7-3.2-.3-3.2.3 0 .1-.5-.6-1.2s-1.2-2.2-1.2-3.3c0-1.2-.3-2.5-.7-2.9-.4-.3-.8-1.7-1-2.9-.2-1.2-.7-3.1-1.2-4.2s-2.4-6.3-4.2-11.5c-1.8-5.2-3.9-11.1-4.8-13-.8-1.9-1.4-3.8-1.3-4.3.1-.4-.2-.7-.6-.7-.5 0-.9-.6-.9-1.3 0-.6-1.7-4.7-3.7-9-2-4.2-3.6-8-3.6-8.3 0-.3-.9-1.8-1.9-3.2-1-1.5-1.9-3.1-1.9-3.5 0-.7-6.2-11.9-15.2-27.7-.9-1.4-4.7-7.3-8.5-12.9-3.9-5.7-7.4-11-8-11.9-.5-.9-2-2.7-3.2-4.1-1.3-1.4-2.3-2.9-2.3-3.2 0-.4-1.6-2.4-3.5-4.5-1.9-2.2-3.5-4.4-3.5-5.1 0-.6-.4-1.3-.9-1.5-.7-.2-4.5-4.6-13.1-15.2-4.5-5.5-14.1-15.6-26.5-28.1-11.9-12-18.3-18-35.2-33-1.2-1.1-3.6-3.1-5.4-4.5-1.7-1.4-3.7-3-4.3-3.5-.6-.6-4.5-3.8-8.6-7-4.1-3.3-7.7-6.2-8-6.5-.3-.4-2.3-1.9-4.5-3.6-2.2-1.6-4.6-3.4-5.5-4.1-.8-.7-4.6-3.5-8.5-6.3-3.8-2.8-8.3-6.1-9.8-7.3-1.6-1.2-3.9-2.8-5.2-3.7-1.3-.8-6.2-4.2-11-7.5-10.5-7.3-27.2-18.4-34-22.5-2.7-1.7-7.9-4.9-11.4-7-3.4-2.2-6.7-4-7.2-4s-.9-.3-.9-.8c0-.4-1-1.2-2.3-1.8-1.2-.6-8.5-4.8-16.2-9.4-7.7-4.6-16.2-9.5-19-11.1-2.7-1.5-7.9-4.4-11.5-6.3-3.6-2-9-4.9-12-6.4s-5.7-2.9-6-3.2c-1.7-1.7-70-36-70-35.1 0 .3-.4.1-.8-.4-.6-.9-32-17-33.2-17-.3 0-1.1-.4-1.9-.9-.7-.5-5.9-3.1-11.5-5.9-5.5-2.7-14.8-7.5-20.6-10.7-5.8-3.1-14.1-7.6-18.5-10-15.1-8-21-11.3-22-12-.5-.5-2.6-1.7-4.5-2.8-7.4-4.1-26.6-15.2-28-16.2-.8-.5-3.1-1.9-5.1-3-2.1-1-4.3-2.5-5.1-3.2-.8-.7-2.4-1.9-3.6-2.6-5.7-3.2-6.7-3.8-7.6-4.5-.6-.4-6-4-12.1-8-13.1-8.6-24.5-16.6-26.3-18.4-.7-.7-1.7-1.3-2.1-1.3-.5 0-2.4-1.3-4.2-3-1.9-1.6-3.7-3-4.1-3-.4 0-1.8-1.1-3.2-2.5-1.4-1.4-2.8-2.5-3.2-2.5-.3 0-2.9-1.9-5.8-4.3-2.8-2.3-5.6-4.6-6.2-5.1-.7-.5-2.5-2-4.2-3.5-1.7-1.4-5-4.2-7.3-6.1-25.4-21-51.9-50.2-69.6-76.7-7.5-11.3-24.6-44-23.7-45.4.2-.4 0-1-.6-1.4-.6-.4-.8-1.1-.5-1.6.4-.5.1-.9-.4-.9-.6 0-1.1-.8-1.1-1.8s-.3-2.2-.7-2.6c-.4-.3-.8-1.2-1-1.9-.1-.7-1.4-5-2.9-9.7-1.4-4.7-3-10.1-3.4-12-.5-1.9-1.1-4.6-1.4-6-1.2-5-4.5-24.6-5.1-30.5-1.6-16-1.9-21.6-1.9-42 0-27.3.7-36.2 4.9-60.5 1.5-8.8 1.7-9.5 3.6-17 .6-2.5 1.2-5 1.3-5.5 1.1-5.9 4.2-15.5 4.9-15.5.4 0 .5-.5.2-1.1-.6-.9 4.2-15.9 6.6-20.1.5-1 .9-2.2.9-2.8 0-.5 1.1-3.3 2.4-6.2 1.3-2.9 3.6-8.1 5.1-11.6 1.5-3.4 3.2-6.2 3.7-6.2.6 0 .8-.7.4-1.5-.3-.8-.2-1.5.2-1.5s1.6-1.9 2.6-4.3c1.1-2.3 2.5-4.9 3.1-5.7.7-.8 2.3-3.5 3.6-6 1.3-2.5 2.7-4.7 3.1-5 .4-.3 2.6-3.5 4.9-7 2.3-3.6 5-7.2 6-8.1 1.1-.9 1.9-1.9 1.9-2.3 0-.3.9-1.6 1.9-2.8 1.1-1.3 2.9-3.4 4.1-4.8 3.3-3.8 10.3-11 15.2-15.7 5-4.6 21.5-17.3 22.6-17.3.4 0 2.1-.9 3.7-2 1.7-1.1 2.5-2 1.9-2-.6 0-1.3.2-1.5.5zM280.9 988.4l-2.2 3-.4 268.3c-.4 296.8-.9 274.4 6.1 275.7 4.4.8 8.2-1 11.6-5.5 6.1-8.1 13.2-15.6 19.4-20.4 2.1-1.7 4.5-3.6 5.2-4.3.7-.6 1.6-1.2 2-1.2.4 0 1.5-.6 2.3-1.4 4.8-4.3 26.9-13.1 37.6-15 4.1-.7 12.8-1.8 14-1.8 11.6.3 32.6 1.3 34.5 1.6 1.4.3 4.8.7 7.5 1.1 13.8 1.7 39.6 6.3 43.5 7.8 2.1.8 12.2 3 13.8 3 .6 0 1.2.3 1.2.7 0 .3 2.7 1.2 6 1.9 3.3.8 6.3 1.8 6.6 2.2.3.5.9.7 1.4.4.5-.3-.9-2.2-3.2-4.3-8.3-7.4-18.6-18.2-29.3-30.6-2.7-3.2-5.8-6.8-6.7-7.9-1-1.1-1.8-2.3-1.8-2.6 0-.3-1.3-2-2.8-3.7-3.6-4.2-13.3-17.7-15.3-21.4-.9-1.6-1.9-2.7-2.3-2.3-.3.3-.6.1-.6-.6s-2.5-5.1-5.5-9.6c-3-4.6-5.5-8.9-5.5-9.4 0-.6-.4-1.1-1-1.1-.5 0-1.2-1.1-1.6-2.5-.3-1.4-.9-2.5-1.3-2.5-.3 0-1.5-1.9-2.6-4.3-1.1-2.3-2.3-4.4-2.6-4.7-.3-.3-4.5-8-9.2-17.1-4.7-9.1-8.9-17.5-9.5-18.5-2.6-4.9-7.5-16-7.5-17.2 0-.6-.4-1.2-.8-1.2-.3 0-.9-.8-1.2-1.8-.3-.9-2.8-7.1-5.7-13.7-2.8-6.6-5.3-12.7-5.5-13.5-.2-.8-2-5.3-4-10s-3.9-9.6-4.1-11c-.3-1.3-.9-2.9-1.3-3.5-.9-1.1-2.5-6.6-2.3-7.8.1-.4-.3-.7-.8-.7-.6 0-1-.6-.9-1.3.1-.6-.1-2.1-.5-3.2-4.3-11.4-5.4-14.4-6.1-17-1.2-4.5-1.2-4.5-1.5-4.8-.1-.1-.3-.9-.5-1.7-.2-.8-2.2-7.4-4.5-14.5-2.2-7.2-4.2-13.7-4.4-14.5-.3-.8-.9-3.3-1.4-5.5-.6-2.2-1.8-6.7-2.6-9.9-.9-3.3-1.8-6.7-2-7.5-.2-.9-.6-2.3-.9-3.1-.5-1.4-3.4-13.1-4.2-16.9-.2-.9-.8-3.6-1.4-6.1-.5-2.5-1.9-8.3-3-13-2.1-8.9-2.3-10.1-4-19-1.7-8.8-2-10.4-2.6-13-.3-1.4-.8-4-1.1-5.9-.7-4.2-1.2-6.9-1.9-10.1-.3-1.4-.8-4.3-1.1-6.5-.8-6.7-1.2-9-1.4-9-.1 0-.3-1.1-.5-2.5-.1-1.4-.5-5-.9-8-.3-3-.9-6.6-1.2-8-.8-3.4-1.2-6.5-1.9-12.8-1.2-12.1-2.2-19.8-2.9-23.7-.2-1.1-.7-6.3-1.1-11.5-.3-5.2-.8-10.6-1-12-.2-1.4-.7-6.8-1-12-1.4-19.9-1.6-20.6-6-22-1.8-.6-5.1-1-7.4-.9-3.2.2-4.5.9-6.2 3.3zM496.6 1508c2.9 2.7 4.4 3 4.4.7 0-.7-1.6-1.7-3.6-2.4l-3.7-1.1 2.9 2.8z"/></svg>