<svg viewBox="0 0 23 23" width="30" height="30" xmlns="http://www.w3.org/2000/svg" fill-rule="evenodd" clip-rule="evenodd" stroke-linejoin="round" stroke-miterlimit="1.41"><path d="M1.82.16l.1.02.1.02.12.02.1.04.1.04.1.05.1.06.08.07.1.07.07.07L21.84 19.7l.07.08.07.08.05.1.06.08.06.1.04.1.04.1.03.1.02.12V20.96l-.02.12-.03.1-.03.1-.04.1-.04.1-.06.1-.06.1-.06.1-.07.07-.1.07-.07.08-.1.06-.08.06-.1.05-.1.05-.1.04-.1.03-.1.02h-.12l-.1.02h-.32l-.1-.04-.1-.02-.12-.04-.1-.04-.1-.05-.1-.06-.08-.07-.08-.07-.08-.07L.58 2.8.5 2.74l-.07-.08-.06-.1-.05-.08-.05-.1-.05-.1-.03-.1-.04-.1-.02-.12v-.1l-.02-.1v-.22l.03-.12.02-.1.03-.1.04-.1L.3 1 .33.9.4.8.47.74l.07-.1L.62.6.7.5.8.44.87.38l.1-.05.1-.05.1-.04.1-.03h.1l.1-.03H1.83z" fill="#fff"/><path d="M20.83.16h.1l.1.03h.12l.1.04.1.04.1.05.1.05.1.06.08.06.08.08.1.07.06.08.06.1.06.08.06.1.04.1.04.1.03.1.03.12.02.1v.44l-.03.1-.03.12-.04.1-.04.1-.05.1-.05.1-.06.08-.08.08-.07.08L2.8 21.9l-.1.06-.08.07-.1.06-.08.05-.1.05-.1.04-.1.04-.1.02-.1.03H1.37l-.1-.04-.1-.04-.1-.04-.1-.05-.1-.05-.1-.06L.7 22l-.08-.08-.08-.07-.07-.1-.07-.07-.06-.1-.05-.1-.06-.1-.04-.1-.03-.1-.02-.1-.02-.1V20.53l.03-.1.03-.12.02-.1.04-.1.05-.1.07-.1.06-.08.07-.08.08-.08L19.64.6l.08-.06.08-.07.1-.06.1-.05.08-.05.1-.04.1-.04.1-.02.12-.03h.32z" fill="#fff"/></svg>
