<svg xmlns="http://www.w3.org/2000/svg" viewBox="0 0 30.82 48.29"><defs><style>.cls-1{fill:#fff;}</style></defs><title>logo_header_w</title><g id="Layer_2" data-name="Layer 2"><g id="Top_Header" data-name="Top Header"><path class="cls-1" d="M0,47.9c0,.26.07.39.26.39s.26-.13.46-.39a3.23,3.23,0,0,1,2.76-1.18A11.87,11.87,0,0,1,7,47.4v.12c-3.6-2.9-5.92-9.83-6.32-16.17,0-.26-.07-.39-.33-.39s-.33.13-.33.39"/><path class="cls-1" d="M22,1.18c3.4,2.16,4.86,7,5.29,13.21,0,.26.07.39.33.39s.33-.13.33-.39V.39c0-.26-.07-.39-.26-.39s-.26.13-.46.39a2.61,2.61,0,0,1-2.43,1.05A11.91,11.91,0,0,1,21,.76Z"/><path class="cls-1" d="M17.41,19.38c-9.13-4.4-11-7.62-11-11.89,0-3,1.33-6.13,3.54-7.31h0A11.7,11.7,0,0,0,1.77,11.5c0,5.85,2.83,10.58,11.89,15,10,4.86,12.48,7.62,12.48,12.75,0,3-1.1,6.35-3.17,8v.11a14,14,0,0,0,7.84-12.54C30.82,28.52,26.87,23.92,17.41,19.38Z"/></g></g></svg>