<svg xmlns="http://www.w3.org/2000/svg" viewBox="0 0 157.86 121.97"><defs><style>.cls-1{font-size:35.46px;font-family:EssonnesHeadline-Regular, Essonnes;letter-spacing:-0.01em;}.cls-1,.cls-5,.cls-9{fill:#212120;}.cls-2{letter-spacing:0.01em;}.cls-3{letter-spacing:-0.03em;}.cls-4{letter-spacing:0.01em;}.cls-5{font-size:16.4px;font-family:Akrobat-Bold, Akrobat;font-weight:700;letter-spacing:0.33em;}.cls-6{letter-spacing:0.32em;}.cls-7{letter-spacing:0.32em;}.cls-8{letter-spacing:0.33em;}</style></defs><title>logo_home_1</title><g id="Layer_2" data-name="Layer 2"><g id="Layer_2-2" data-name="Layer 2"><text class="cls-1" transform="translate(9.21 92.4)">w<tspan class="cls-2" x="26.2" y="0">e ma</tspan><tspan class="cls-3" x="100.73" y="0">k</tspan><tspan class="cls-4" x="118.77" y="0">e</tspan></text><text class="cls-5" transform="translate(2.26 117.62)">YOUR CL<tspan class="cls-6" x="89.11" y="0">O</tspan><tspan class="cls-7" x="103" y="0">T</tspan><tspan class="cls-8" x="115.33" y="0">HES</tspan></text><path class="cls-9" d="M39.51.4H29.83l1,3.31-.29-.07-9.12,38L9.68.4H0L17.06,57.91c.16.63.32,1,.71,1s.55-.32.71-1L21,47.39l.08,0L31.21,5.05l1,3.36.71,1.67,14,47.84c.16.63.32,1,.71,1s.55-.32.71-1l3.25-15.15Z"/><path class="cls-9" d="M86.79,0h-9l.39,1.11.06.19V54.63c0,.12-.13,2.89-3.45,2.89H73.39v1h1.36a4.12,4.12,0,0,0,4.45-3.88V4.39L96.62,58.31c.16.63.32,1,.79,1s.55-.32.71-1l3.65-14.52L87.9.79C87.74.16,87.42,0,86.79,0Z"/><polygon class="cls-9" points="116.87 0 116.85 1.82 116.85 57.52 126.61 57.52 126.61 0 116.87 0"/></g></g></svg>