<svg xmlns="http://www.w3.org/2000/svg" viewBox="0 0 149.65 117.83"><defs><style>.cls-1{fill:#111;}</style></defs><title>logo_home_w</title><g id="Layer_2" data-name="Layer 2"><g id="Layer_2-2" data-name="Layer 2"><path class="cls-1" d="M16.9,77.15h8.3c.14,0,.21,0,.21.18s-.07.18-.21.18H22.53l4,11.1h.14l3.76-11.1H27.32c-.14,0-.21,0-.21-.18s.07-.18.21-.18H33c.14,0,.21,0,.21.18s-.07.18-.21.18H30.9L25.76,92.61c-.07.18-.11.21-.28.21h-.74c-.18,0-.21,0-.28-.21L20.12,80.73l-4,11.88c-.07.18-.11.21-.28.21h-.74c-.18,0-.21,0-.28-.21L9.27,77.5H7.22c-.14,0-.21,0-.21-.18s.07-.18.21-.18h8.3c.14,0,.21,0,.21.18s-.07.18-.21.18H12.85l4,11.1H17l2.87-8.51L19,77.5H16.9c-.14,0-.21,0-.21-.18S16.75,77.15,16.9,77.15Z"/><path class="cls-1" d="M42,76.72c4,0,6.31,3.37,6.31,6.84,0,.21-.11.36-.32.36H38.24v.85c0,4,.5,5.57,1.49,6.56a3.5,3.5,0,0,0,2.66,1,6.08,6.08,0,0,0,5.32-3.58c0-.11.35.07.32.18A6.94,6.94,0,0,1,42,92.82c-4.15,0-7.52-3.4-7.52-8A7.79,7.79,0,0,1,42,76.72Zm-2.3,1.17c-1,1-1.45,3-1.45,5.67h6.28c.32,0,.35,0,.35-.39,0-2.8-.43-4.57-1.28-5.43A2.38,2.38,0,0,0,41.82,77,2.69,2.69,0,0,0,39.66,77.89Z"/><path class="cls-1" d="M61,92h2.48V77.5h-2c-.14,0-.21,0-.21-.18s.07-.18.21-.18H66.5c.28,0,.39.07.39.35v.14c0,.6-.07,1.67-.11,2.13l.11.07a4.28,4.28,0,0,1,4.36-3.12c2.73,0,4.36,1.13,5,3h.14a4.38,4.38,0,0,1,4.47-3c3.55,0,5.53,2,5.53,5.46V92h2c.14,0,.21,0,.21.18s-.07.18-.21.18h-7.8c-.14,0-.21,0-.21-.18s.07-.18.21-.18h2.31V81.55c0-3-1.24-4.15-3.12-4.15a3.2,3.2,0,0,0-3.09,3.19V92h2c.14,0,.21,0,.21.18s-.07.18-.21.18H70.86c-.14,0-.21,0-.21-.18s.07-.18.21-.18h2.31V81.58c0-3.08-1.28-4.18-3-4.18S67.31,78.74,67,80.8V92h2c.14,0,.21,0,.21.18s-.07.18-.21.18H61c-.14,0-.21,0-.21-.18S60.82,92,61,92Z"/><path class="cls-1" d="M97.63,83.92a8.58,8.58,0,0,1,3,.53V80.8c0-2.7-1.28-3.72-3-3.72S95,77.75,95,78.71s.67,1.06.67,2.27A1.58,1.58,0,0,1,94,82.54a1.73,1.73,0,0,1-1.67-2c0-1.52,2.06-3.87,5.28-3.87,4.33,0,6.53,2.06,6.53,5.6v8.33c0,1.13.39,1.6,1,1.6a2.44,2.44,0,0,0,1.45-.53c.14-.11.32.18.18.28a4.29,4.29,0,0,1-2.62.82A3.16,3.16,0,0,1,101,90.2h-.14a4,4,0,0,1-4,2.62c-3.33,0-5.14-1.81-5.14-4.43S93.87,83.92,97.63,83.92Zm.43,8.26c1.31,0,2.3-1.17,2.62-2.77V84.81a5.72,5.72,0,0,0-2.48-.53c-1.74,0-2.8,1.17-2.8,4.11C95.39,90.8,96.35,92.18,98.05,92.18Z"/><path class="cls-1" d="M108.4,92h2.66V66h-2.27c-.14,0-.21,0-.21-.18s.07-.18.21-.18h5.39c.28,0,.39.07.39.35V83.53l6.84-6H118.3c-.14,0-.21,0-.21-.18s.07-.18.21-.18h5.85c.14,0,.21,0,.21.18s-.07.18-.21.18h-2.23l-4.75,4.25L124.65,92h1.84c.14,0,.21,0,.21.18s-.07.18-.21.18h-7.87c-.14,0-.21,0-.21-.18s.07-.18.21-.18h2L116,85.66c-.43-.57-1.1-1.53-1.31-1.92h-.14c0,.53,0,1.74,0,2.48V92h2c.14,0,.21,0,.21.18s-.07.18-.21.18H108.4c-.14,0-.21,0-.21-.18S108.26,92,108.4,92Z"/><path class="cls-1" d="M134.54,76.72c4,0,6.31,3.37,6.31,6.84,0,.21-.11.36-.32.36h-9.72v.85c0,4,.5,5.57,1.49,6.56a3.51,3.51,0,0,0,2.66,1,6.08,6.08,0,0,0,5.32-3.58c0-.11.35.07.32.18a6.94,6.94,0,0,1-6.06,3.9c-4.15,0-7.52-3.4-7.52-8A7.79,7.79,0,0,1,134.54,76.72Zm-2.3,1.17c-1,1-1.45,3-1.45,5.67h6.28c.32,0,.35,0,.35-.39,0-2.8-.42-4.57-1.28-5.43a2.38,2.38,0,0,0-1.74-.71A2.69,2.69,0,0,0,132.23,77.89Z"/><path class="cls-1" d="M2.79,113.85,0,106.14H1.72L3,110c.16.49.41,1.23.57,1.8h0l.59-1.84,1.28-3.79H7.23l-2.79,7.71v3.77H2.79Z"/><path class="cls-1" d="M13.49,114v-4.2c0-2.39,1.31-3.85,3.51-3.85s3.51,1.46,3.51,3.85V114c0,2.4-1.31,3.86-3.51,3.86S13.49,116.37,13.49,114Zm5.31,0v-4.2c0-1.44-.62-2.23-1.8-2.23s-1.8.79-1.8,2.23V114c0,1.44.61,2.23,1.8,2.23S18.81,115.42,18.81,114Z"/><path class="cls-1" d="M27.69,114.08v-7.94H29.4v7.94c0,1.43.64,2.1,1.69,2.1s1.67-.67,1.67-2.1v-7.94h1.71v7.94c0,2.38-1.33,3.71-3.38,3.71S27.69,116.46,27.69,114.08Z"/><path class="cls-1" d="M44.68,113.45h-1v4.17H42V106.14h3c2.2,0,3.44,1.31,3.44,3.59a3.38,3.38,0,0,1-2.07,3.49l2.49,4.4H47Zm-1-1.58h1.28c1.16,0,1.77-.75,1.77-2.12s-.61-2.05-1.76-2.05h-1.3Z"/><path class="cls-1" d="M64.27,114.24v-4.72c0-2.33,1.3-3.59,3.31-3.59s3.31,1.25,3.41,3.53H69.36c-.1-1.34-.69-2-1.79-2s-1.61.64-1.61,2v4.72c0,1.36.64,2,1.64,2s1.71-.62,1.82-1.94h1.64c-.11,2.26-1.34,3.51-3.46,3.51S64.27,116.55,64.27,114.24Z"/><path class="cls-1" d="M83.54,116v1.57H78.08V106.14h1.66V116Z"/><path class="cls-1" d="M89.88,114v-4.2c0-2.39,1.31-3.85,3.51-3.85s3.51,1.46,3.51,3.85V114c0,2.4-1.31,3.86-3.51,3.86S89.88,116.37,89.88,114Zm5.31,0v-4.2c0-1.44-.62-2.23-1.8-2.23s-1.8.79-1.8,2.23V114c0,1.44.61,2.23,1.8,2.23S95.2,115.42,95.2,114Z"/><path class="cls-1" d="M109.69,107.71h-2.4v9.91h-1.69v-9.91h-2.38v-1.58h6.46Z"/><path class="cls-1" d="M123,106.14v11.48h-1.66v-5h-3.25v5h-1.66V106.14h1.66V111h3.25v-4.89Z"/><path class="cls-1" d="M136.48,116.06v1.56h-5.79V106.14h5.63v1.56h-4V111H136v1.53h-3.66v3.51Z"/><path class="cls-1" d="M142.94,114.47h1.69a1.56,1.56,0,0,0,1.67,1.76,1.48,1.48,0,0,0,1.64-1.58c0-2.28-4.81-2.41-4.81-5.82a2.89,2.89,0,0,1,3.15-2.9,3,3,0,0,1,3.2,3.21h-1.69c0-1.1-.61-1.62-1.49-1.62a1.31,1.31,0,0,0-1.48,1.35c0,2.25,4.82,2.25,4.82,5.81a3.36,3.36,0,0,1-6.71-.2Z"/><path class="cls-1" d="M47.19.4H37.52l1,3.31-.29-.07-9.12,38L17.37.4H7.69L24.74,57.91c.16.63.32,1,.71,1s.55-.32.71-1l2.48-10.52.08,0L38.9,5.05l1,3.36.71,1.67,14,47.84c.16.63.32,1,.71,1s.55-.32.71-1l3.25-15.15Z"/><path class="cls-1" d="M94.47,0h-9l.39,1.11.06.19V54.63c0,.12-.13,2.89-3.45,2.89H81.08v1h1.36a4.12,4.12,0,0,0,4.45-3.88V4.39l17.42,53.92c.16.63.32,1,.79,1s.55-.32.71-1l3.65-14.52L95.59.79C95.43.16,95.11,0,94.47,0Z"/><polygon class="cls-1" points="124.56 0 124.54 1.82 124.54 57.52 134.3 57.52 134.3 0 124.56 0"/></g></g></svg>