<svg xmlns="http://www.w3.org/2000/svg" viewBox="0 0 137.92 136.18"><defs><style>.cls-1{fill:#fff;}</style></defs><title>logo_banner_w</title><g id="Layer_2" data-name="Layer 2"><g id="Layer_2-2" data-name="Layer 2"><path class="cls-1" d="M50.55,47.9c0,.26.07.39.26.39s.26-.13.46-.39A3.23,3.23,0,0,1,54,46.72a11.87,11.87,0,0,1,3.49.68v.12c-3.6-2.9-5.92-9.83-6.32-16.17,0-.26-.07-.39-.33-.39s-.33.13-.33.39"/><path class="cls-1" d="M72.53,1.18c3.4,2.16,4.86,7,5.29,13.21,0,.26.07.39.33.39s.33-.13.33-.39V.39c0-.26-.07-.39-.26-.39s-.26.13-.46.39a2.61,2.61,0,0,1-2.43,1.05A11.91,11.91,0,0,1,71.53.76Z"/><path class="cls-1" d="M68,19.38C58.83,15,57,11.76,57,7.49c0-3,1.33-6.13,3.54-7.31h0a11.7,11.7,0,0,0-8.2,11.32c0,5.85,2.83,10.58,11.89,15,10,4.86,12.48,7.62,12.48,12.75,0,3-1.1,6.35-3.17,8v.11a14,14,0,0,0,7.84-12.54C81.37,28.52,77.42,23.92,68,19.38Z"/><path class="cls-1" d="M2,119.64a1.29,1.29,0,0,1,1.42,1.3c0,1.26-1.22,1.54-1.22,2.52s1,1.67,2.93,1.67c2.48,0,3.82-1.58,3.82-3.5,0-4.15-5.73-4.35-5.73-9.55C3.21,109.23,6,107,9.06,107c2.68,0,4.43,1.67,4.43,3.21a2,2,0,0,1-1.91,2A1.25,1.25,0,0,1,10.37,111c0-.85.94-1.22.94-2,0-1-.89-1.63-2.28-1.63-2,0-3,1.06-3,2.8,0,3.66,5.93,4.27,5.93,9.55,0,3-2.8,5.81-6.79,5.81C2,125.49,0,123.75,0,121.88A2.22,2.22,0,0,1,2,119.64Z"/><path class="cls-1" d="M26.75,125.49c-3.9,0-6.75-2.93-6.75-7.64,0-5.77,4.8-10.89,10.53-10.89,3.9,0,6.75,2.93,6.75,7.64C37.27,120.37,32.48,125.49,26.75,125.49Zm3.86-18.13a4.2,4.2,0,0,0-3,1.38c-2.24,2.24-4.15,7.4-4.15,11.63,0,2.89.89,4.71,3.17,4.71a4.2,4.2,0,0,0,3-1.38c2.24-2.24,4.15-7.4,4.15-11.63C33.78,109.19,32.88,107.36,30.61,107.36Z"/><path class="cls-1" d="M57.84,113.1a1.36,1.36,0,0,1-1.42-1.46c0-1,1.1-1.67,1.1-2.6s-1.06-1.67-2.56-1.67a4.2,4.2,0,0,0-3,1.38c-2.24,2.24-4.15,7.4-4.15,11.63,0,2.89,1,4.71,3.33,4.71s5-2.11,6.5-4.19c.12-.2.41,0,.24.2-1.63,2.4-4.27,4.39-7.24,4.39-3.5,0-6.34-2.93-6.34-7.64,0-5.77,4.8-10.89,10.53-10.89,2.6,0,5,1.63,5,3.74A2.22,2.22,0,0,1,57.84,113.1Z"/><path class="cls-1" d="M73.78,110.37c0,3.46-4,9.59-4,12.28,0,1,.37,1.38,1.06,1.38.89,0,2.11-1,3.13-2.8.12-.12.41,0,.33.16-1.42,2.64-3.21,3.9-5,3.9s-3-1.38-3-3.41c0-2.76,4-9.31,4-12.28,0-.93-.37-1.5-1.1-1.5s-1.79.65-2.76,2.93c-.08.16-.41,0-.32-.16,1.06-2.76,2.84-3.94,4.51-3.94C72.6,106.92,73.78,108.26,73.78,110.37ZM74.47,95a2,2,0,0,1,2,2,3,3,0,0,1-2.89,2.93,1.94,1.94,0,0,1-2-1.87A3.17,3.17,0,0,1,74.47,95Z"/><path class="cls-1" d="M92,107c2.93,0,4.76,1.22,4.76,3.54,0,2.68-3.5,5.16-9.55,5.16H85.64a19.12,19.12,0,0,0-.65,4.72c0,2.11,1,4.55,3.62,4.55,2.4,0,5-1.79,6.46-4,.12-.16.37,0,.24.2A9.12,9.12,0,0,1,88,125.49c-3.66,0-6.5-2.93-6.5-7.64C81.5,112.08,86.29,107,92,107Zm-2.89,1.79a14.84,14.84,0,0,0-3.37,6.54h1.75c4.71,0,6.22-2.8,6.22-5.65,0-1.71-.57-2.28-1.79-2.28A4.08,4.08,0,0,0,89.14,108.75Z"/><path class="cls-1" d="M104.83,107.32h2.68l1-3c1.26,0,3.62-1.63,4.59-3.82h.81l-2.15,6.83h3.54c.16,0,.24,0,.24.2s-.08.2-.24.2h-3.66l-3.54,11.22c-1.18,3.78-.65,5,.61,5,.85,0,2-.89,3-2.8.08-.16.41,0,.33.16-1.42,2.64-3.17,4-5.28,4s-4.31-1.87-2.93-6.22l3.54-11.3h-2.56c-.16,0-.24,0-.24-.2S104.67,107.32,104.83,107.32Z"/><path class="cls-1" d="M118,130.7a1.56,1.56,0,0,1,1.63,1.54c0,1.06-1.18,1.75-1.18,2.52,0,.61.49.93,1.1.93,1.5,0,3.74-2.64,5.69-7.4a6.4,6.4,0,0,0,.57-2.4c0-5.77-.77-14.35-2.93-16.5a1.66,1.66,0,0,0-1.22-.53c-1.06,0-1.87,1.26-2.64,3.58,0,.16-.28,0-.24-.12.65-2.52,2.28-5.37,4.88-5.37,3.13,0,4.47,3.5,5.16,12.85H129a85.66,85.66,0,0,1,4.55-9.35c1.18-2.11,2.11-3.5,3.29-3.5a1,1,0,0,1,1.06,1.1c0,1.38-1.67,2-3.13,3.17-2.24,1.79-4,4.8-7.52,13.5-3.66,9-5.69,11.46-8.54,11.46a2.73,2.73,0,0,1-2.89-3A2.46,2.46,0,0,1,118,130.7Z"/><path class="cls-1" d="M16.59,81h1.77a1.63,1.63,0,0,0,1.75,1.84,1.54,1.54,0,0,0,1.72-1.65c0-2.39-5-2.52-5-6.09a3,3,0,0,1,3.3-3,3.16,3.16,0,0,1,3.35,3.36H21.67c0-1.15-.63-1.7-1.56-1.7a1.37,1.37,0,0,0-1.54,1.41c0,2.35,5,2.35,5,6.08a3.25,3.25,0,0,1-3.5,3.31A3.28,3.28,0,0,1,16.59,81Z"/><path class="cls-1" d="M41,82.65v1.63H34.95v-12h5.89V73.9H36.68v3.49h3.83V79H36.68v3.67Z"/><path class="cls-1" d="M64.22,72.27l-2.69,12H59.67L58.5,79a31,31,0,0,1-.57-3.86h-.07A34.61,34.61,0,0,1,57.29,79l-1.17,5.3H54.26l-2.7-12h1.8l1.24,6.58c.15.88.45,2.44.55,3.19h.07c.1-.75.36-2.23.55-3.28l1.2-6.3h1.84l1.2,6.3c.19,1,.45,2.52.55,3.28h.07c.1-.75.39-2.32.55-3.19l1.24-6.58Z"/><path class="cls-1" d="M77.07,72.27v12H75.33v-12Z"/><path class="cls-1" d="M96.37,72.27v12H94.64L92,78.4c-.36-.89-.86-2.15-1.15-2.92l-.05,0c.12,1.2.21,3,.21,4.14v4.63H89.24v-12H91l2.76,6.13c.36.81.81,1.92,1.1,2.64l.05,0c-.14-1.18-.24-3-.24-4.05V72.27Z"/><path class="cls-1" d="M108.22,80.71V75.82c0-2.44,1.34-3.74,3.52-3.74s3.42,1.29,3.5,3.66h-1.72c-.07-1.39-.69-2-1.79-2s-1.75.63-1.75,2.09v4.88c0,1.46.69,2.09,1.8,2.09s1.84-.63,1.84-2V79.29h-1.91V77.74h3.61V80.8c0,2.35-1.39,3.67-3.55,3.67S108.22,83.15,108.22,80.71Z"/></g></g></svg>