<svg xmlns="http://www.w3.org/2000/svg" viewBox="0 0 126.61 59.26"><defs><style>.cls-1{fill:#212120;}</style></defs><title>logo</title><g id="Layer_2" data-name="Layer 2"><g id="Layer_2-2" data-name="Layer 2"><path class="cls-1" d="M39.51.4H29.83l1,3.31-.29-.07-9.12,38L9.68.4H0L17.06,57.91c.16.63.32,1,.71,1s.55-.32.71-1L21,47.39l.08,0L31.21,5.05l1,3.36.71,1.67,14,47.84c.16.63.32,1,.71,1s.55-.32.71-1l3.25-15.15Z"/><path class="cls-1" d="M86.79,0h-9l.39,1.11.06.19V54.63c0,.12-.13,2.89-3.45,2.89H73.39v1h1.36a4.12,4.12,0,0,0,4.45-3.88V4.39L96.62,58.31c.16.63.32,1,.79,1s.55-.32.71-1l3.65-14.52L87.9.79C87.74.16,87.42,0,86.79,0Z"/><polygon class="cls-1" points="116.87 0 116.85 1.82 116.85 57.52 126.61 57.52 126.61 0 116.87 0"/></g></g></svg>