<svg xmlns="http://www.w3.org/2000/svg" viewBox="0 0 229.06 212.89" width="229" height="213"><defs><style>.cls-1{font-size:65.71px;font-family:EssonnesHeadline-Italic, Essonnes;font-style:italic;letter-spacing:0.1em;}.cls-1,.cls-2,.cls-4{fill:#fff;}.cls-2{font-size:27.76px;font-family:Akrobat-Bold, Akrobat;font-weight:700;letter-spacing:0.56em;}.cls-3{letter-spacing:0.57em;}.cls-5{fill:none;stroke:#fff;stroke-miterlimit:10;}</style></defs><title>logo_banner</title><g id="Layer_2" data-name="Layer 2"><g id="Layer_2-2" data-name="Layer 2"><text class="cls-1" transform="translate(0 171.11)">society</text><text class="cls-2" transform="translate(25.86 105.28)">S<tspan class="cls-3" x="28.45" y="0">EWING</tspan></text><path class="cls-4" d="M99.12,47.9c0,.26.07.39.26.39s.26-.13.46-.39a3.23,3.23,0,0,1,2.76-1.18,11.87,11.87,0,0,1,3.49.68v.12c-3.6-2.9-5.92-9.83-6.32-16.17,0-.26-.07-.39-.33-.39s-.33.13-.33.39"/><path class="cls-4" d="M121.1,1.18c3.4,2.16,4.86,7,5.29,13.21,0,.26.07.39.33.39s.33-.13.33-.39V.39c0-.26-.07-.39-.26-.39s-.26.13-.46.39a2.61,2.61,0,0,1-2.43,1.05A11.91,11.91,0,0,1,120.1.76Z"/><path class="cls-4" d="M116.53,19.38c-9.13-4.4-11-7.62-11-11.89,0-3,1.33-6.13,3.54-7.31h0a11.7,11.7,0,0,0-8.2,11.32c0,5.85,2.83,10.58,11.89,15,10,4.86,12.48,7.62,12.48,12.75,0,3-1.1,6.35-3.17,8v.11a14,14,0,0,0,7.84-12.54C129.94,28.52,126,23.92,116.53,19.38Z"/><polyline class="cls-5" points="149.53 212.18 141.03 203.68 132.53 212.18 123.53 203.18 114.53 212.18 106.03 203.68 97.53 212.18 88.53 203.18 79.53 212.18"/></g></g></svg>
