<?xml version="1.0" encoding="utf-8"?>
<!-- Generator: Adobe Illustrator 21.0.2, SVG Export Plug-In . SVG Version: 6.00 Build 0)  -->
<svg version="1.1" id="Layer_1" xmlns="http://www.w3.org/2000/svg" xmlns:xlink="http://www.w3.org/1999/xlink" x="0px" y="0px"
	 viewBox="0 0 30.1 38.4" style="enable-background:new 0 0 30.1 38.4;" xml:space="preserve">
<style type="text/css">
	.st0{fill:#FFFFFF;}
</style>
<title>sh_bag_w</title>
<g>
	<path class="st0" d="M19.8,19.9c0,4.4-4.2,10.8-4.2,14.5c0,0.7,0.4,1.3,1.1,1.3c0.8,0,2-0.8,3-1.6c0.2-0.2,1,0.5,0.9,0.7
		C19,37,16,38.4,13.3,38.4c-3.4,0-5.2-2-5.2-4.8c0-4.4,4.2-10.1,4.2-14.7c0-0.8-0.5-1.3-1.2-1.3c-0.7,0-1.3,0.2-2.5,1.3
		c-0.1,0.1-0.9-0.6-0.7-0.8c1.6-2,4.2-3.2,6.4-3.2C17.7,15,19.8,16.7,19.8,19.9z M18.9,0.8c1.9,0,3.2,1.3,3.2,3
		c0,2.4-1.9,4.6-4.7,4.6c-1.9,0-3.2-1.3-3.2-3C14.2,2.9,16.1,0.8,18.9,0.8z"/>
</g>
</svg>
