<?xml version="1.0" encoding="utf-8"?>
<!-- Generator: Adobe Illustrator 21.0.2, SVG Export Plug-In . SVG Version: 6.00 Build 0)  -->
<svg version="1.1" id="Layer_1" xmlns="http://www.w3.org/2000/svg" xmlns:xlink="http://www.w3.org/1999/xlink" x="0px" y="0px"
	 viewBox="0 0 24 29" style="enable-background:new 0 0 24 29;" xml:space="preserve">
<style type="text/css">
	.st0{fill:#FFFFFF;}
</style>
<title>share_tw</title>
<g id="Layer_2">
	<g id="Layer_2-2">
		<g id="twitter">
			<g id="twitter-icon">
				<path class="st0" d="M24,7.1c-0.9,0.4-1.8,0.7-2.8,0.8c1-0.6,1.8-1.6,2.2-2.7c-1,0.6-2,1-3.2,1.2c-1.9-2-5-2-7-0.1
					c-1.2,1.2-1.7,2.9-1.4,4.6c-4-0.2-7.6-2.1-10.1-5.2C0.4,7.9,1,10.8,3.2,12.2c-0.8,0-1.5-0.2-2.2-0.6C1,14,2.6,16,5,16.5
					c-0.7,0.2-1.5,0.2-2.2,0.1c0.6,2,2.5,3.4,4.6,3.4c-2.1,1.6-4.7,2.3-7.3,2c2.3,1.4,4.9,2.2,7.5,2.2c7.7,0,13.9-6.2,14-13.9
					c0-0.2,0-0.5,0-0.7C22.5,8.9,23.3,8,24,7.1z"/>
			</g>
		</g>
	</g>
</g>
</svg>
