<svg xmlns="http://www.w3.org/2000/svg" viewBox="0 0 23.8 19.34"><defs><style>.cls-1{fill:#fff;}</style></defs><title>share_tw_w</title><g id="Layer_2" data-name="Layer 2"><g id="Layer_2-2" data-name="Layer 2"><g id="twitter"><g id="twitter-icon"><path class="cls-1" d="M23.8,2.29a9.75,9.75,0,0,1-2.8.77A4.9,4.9,0,0,0,23.14.36,9.73,9.73,0,0,1,20,1.54,4.89,4.89,0,0,0,11.72,6,13.86,13.86,0,0,1,1.66.89,4.89,4.89,0,0,0,3.17,7.42,4.85,4.85,0,0,1,1,6.81a4.89,4.89,0,0,0,3.92,4.85,5,5,0,0,1-2.2.09,4.88,4.88,0,0,0,4.56,3.39,9.85,9.85,0,0,1-7.23,2,13.82,13.82,0,0,0,7.48,2.19A13.81,13.81,0,0,0,21.36,4.82,9.94,9.94,0,0,0,23.8,2.29Z"/></g></g></g></g></svg>